<svg xmlns="http://www.w3.org/2000/svg" viewBox="0 0 1427.99 1758.34"><defs fill="#045700"><style>.cls-1{fill:#045700;}</style></defs><g id="Layer_3" data-name="Layer 3"><path class="cls-1" d="M429.7,1393.89h40.93v28H393.07V1290.17H429.7Z" transform="translate(-286 -120.83)" fill="#045700"/><path class="cls-1" d="M521.46,1290.17v131.75H484.83V1290.17Z" transform="translate(-286 -120.83)" fill="#045700"/><path class="cls-1" d="M670.59,1290.17l-45.41,131.75H578.27l-45.6-131.75h39.25l29.9,95.13,29.71-95.13Z" transform="translate(-286 -120.83)" fill="#045700"/><path class="cls-1" d="M718.62,1290.17v131.75H682V1290.17Z" transform="translate(-286 -120.83)" fill="#045700"/><path class="cls-1" d="M861.59,1421.92H825l-48.78-73.63v73.63H739.55V1290.17h36.63L825,1364.74v-74.57h36.63Z" transform="translate(-286 -120.83)" fill="#045700"/><path class="cls-1" d="M966.61,1333.53a21.17,21.17,0,0,0-8.68-8,28.33,28.33,0,0,0-13-2.8q-13.85,0-21.77,9t-7.95,24.11q0,17,8.51,25.88t24.76,8.88q19.25,0,27.47-17.38H939.14V1346.8h68.4v35.51a67.22,67.22,0,0,1-12.61,19.62,64.62,64.62,0,0,1-21,15q-12.71,5.9-29,5.89-19.82,0-35-8.5a59.07,59.07,0,0,1-23.55-23.74Q878,1375.4,878,1355.77q0-19.44,8.32-34.67a59.3,59.3,0,0,1,23.45-23.73q15.13-8.5,35-8.51,24.86,0,41.11,12t20.19,32.71Z" transform="translate(-286 -120.83)" fill="#045700"/><path class="cls-1" d="M1036,1412.3q-14.78-10.93-15.89-31.3h39.06q.56,6.91,4.11,10.09a14.84,14.84,0,0,0,17.47.65,8.36,8.36,0,0,0,3.28-7q0-5.79-5.43-9t-17.56-7.1a157.48,157.48,0,0,1-20.84-8.31,40,40,0,0,1-13.83-11.78q-5.88-7.75-5.88-20.27,0-12.72,6.35-21.78a39.24,39.24,0,0,1,17.57-13.73,65.59,65.59,0,0,1,25.41-4.67q23,0,36.73,10.74t14.67,30.18h-39.81q-.19-6-3.65-9a13.08,13.08,0,0,0-8.87-3,9.49,9.49,0,0,0-6.73,2.43,9,9,0,0,0-2.62,6.92,8.56,8.56,0,0,0,2.9,6.45,26.73,26.73,0,0,0,7.2,4.67c2.86,1.3,7.1,3,12.7,5a157.09,157.09,0,0,1,20.65,8.5,42.39,42.39,0,0,1,14,11.77q5.89,7.57,5.89,19.16a38.75,38.75,0,0,1-5.89,21.12,40.45,40.45,0,0,1-17,14.76q-11.12,5.43-26.25,5.42Q1050.71,1423.23,1036,1412.3Z" transform="translate(-286 -120.83)" fill="#045700"/><path class="cls-1" d="M1239.09,1290.17v29.16H1204v102.59h-36.62V1319.33h-34.76v-29.16Z" transform="translate(-286 -120.83)" fill="#045700"/><path class="cls-1" d="M1281.88,1414.54a64.71,64.71,0,0,1-24.57-24.11q-9.07-15.4-9.07-34.85t9.07-34.85a64,64,0,0,1,24.57-24,71.82,71.82,0,0,1,68.12,0,63.58,63.58,0,0,1,24.39,24q9,15.42,9,34.85t-9,34.85a64.05,64.05,0,0,1-24.48,24.11,70.92,70.92,0,0,1-68,0Zm56.16-34.48q8.13-9.15,8.13-24.48,0-15.69-8.13-24.76t-22.15-9.06q-14.19,0-22.23,9.06t-8,24.76q0,15.51,8,24.58t22.23,9.06Q1329.92,1389.22,1338,1380.06Z" transform="translate(-286 -120.83)" fill="#045700"/><path class="cls-1" d="M1521.84,1421.92h-36.63l-48.78-73.63v73.63H1399.8V1290.17h36.63l48.78,74.57v-74.57h36.63Z" transform="translate(-286 -120.83)" fill="#045700"/><path class="cls-1" d="M1579.4,1319.51V1341h42v27.85h-42v23.73h47.66v29.34h-84.29V1290.17h84.29v29.34Z" transform="translate(-286 -120.83)" fill="#045700"/><path class="cls-1" d="M486.32,1499.38a23.81,23.81,0,0,0-9.57-9.71,29.17,29.17,0,0,0-14.21-3.33,31.14,31.14,0,0,0-16,4.05,28.09,28.09,0,0,0-10.87,11.6,40.89,40.89,0,0,0,.07,35.09,28.15,28.15,0,0,0,11.09,11.6,32.72,32.72,0,0,0,16.53,4.06q11.59,0,19-6.16t9.71-17.18h-34.8v-15.52h54.81v17.69a47.44,47.44,0,0,1-8.7,19.58,49.09,49.09,0,0,1-17.18,14.42,50.46,50.46,0,0,1-23.56,5.44,53.38,53.38,0,0,1-26.46-6.59,48,48,0,0,1-18.56-18.35,56.24,56.24,0,0,1,0-53.43,47.87,47.87,0,0,1,18.56-18.41,53,53,0,0,1,26.31-6.6q17.11,0,29.73,8.34a42.57,42.57,0,0,1,17.4,23.41Z" transform="translate(-286 -120.83)" fill="#045700"/><path class="cls-1" d="M526.85,1508.09a35.46,35.46,0,0,1,13.19-14.5,35.08,35.08,0,0,1,18.63-5.08,32.76,32.76,0,0,1,15.73,3.62,32,32,0,0,1,10.81,9.14v-11.45h20.44v80.32H585.21V1558.4a30.19,30.19,0,0,1-10.81,9.35,33.08,33.08,0,0,1-15.87,3.7,34.14,34.14,0,0,1-18.49-5.22,36.47,36.47,0,0,1-13.19-14.72,47.22,47.22,0,0,1-4.86-21.82A46.44,46.44,0,0,1,526.85,1508.09Zm55.46,9.2a20.56,20.56,0,0,0-7.83-8.12,21,21,0,0,0-10.59-2.82,20.52,20.52,0,0,0-10.44,2.75,20.83,20.83,0,0,0-7.76,8.05,25.23,25.23,0,0,0-3,12.54,26.09,26.09,0,0,0,3,12.69,21.46,21.46,0,0,0,7.84,8.33,19.79,19.79,0,0,0,10.36,2.9,20.91,20.91,0,0,0,10.59-2.83,20.47,20.47,0,0,0,7.83-8.11,29.21,29.21,0,0,0,0-25.38Z" transform="translate(-286 -120.83)" fill="#045700"/><path class="cls-1" d="M656,1492.28a28.47,28.47,0,0,1,14.42-3.63V1510H665.1q-9.57,0-14.43,4.49t-4.86,15.66v40h-20.3v-80.32h20.3v12.47A28.51,28.51,0,0,1,656,1492.28Z" transform="translate(-286 -120.83)" fill="#045700"/><path class="cls-1" d="M683.73,1508.09a35,35,0,0,1,32-19.58,34.1,34.1,0,0,1,14.93,3.41,29.79,29.79,0,0,1,11.31,9.06v-38.13h20.59v107.29H741.94v-11.89a27.39,27.39,0,0,1-10.58,9.57,33.13,33.13,0,0,1-15.8,3.63,34.48,34.48,0,0,1-18.56-5.22,36.36,36.36,0,0,1-13.27-14.72,47.22,47.22,0,0,1-4.86-21.82A46.44,46.44,0,0,1,683.73,1508.09Zm55.46,9.2a20.49,20.49,0,0,0-7.83-8.12,21,21,0,0,0-10.58-2.82,20.52,20.52,0,0,0-10.44,2.75,20.76,20.76,0,0,0-7.76,8.05,25.23,25.23,0,0,0-3,12.54,26.09,26.09,0,0,0,3,12.69,21.37,21.37,0,0,0,7.83,8.33,19.82,19.82,0,0,0,10.37,2.9,20.87,20.87,0,0,0,10.58-2.83,20.4,20.4,0,0,0,7.83-8.11,29.21,29.21,0,0,0,0-25.38Z" transform="translate(-286 -120.83)" fill="#045700"/><path class="cls-1" d="M856.49,1536.07H797.77q.72,8.7,6.09,13.63a18.78,18.78,0,0,0,13.19,4.93q11.31,0,16.1-9.72H855A36.6,36.6,0,0,1,841.7,1564q-9.86,7.47-24.21,7.47a41.92,41.92,0,0,1-20.81-5.15,36.29,36.29,0,0,1-14.36-14.57,44.68,44.68,0,0,1-5.14-21.75,45.5,45.5,0,0,1,5.07-21.89,35.33,35.33,0,0,1,14.21-14.5,45.6,45.6,0,0,1,41.54-.15,34.77,34.77,0,0,1,14.07,14,42.43,42.43,0,0,1,5,20.81A47.54,47.54,0,0,1,856.49,1536.07Zm-20.44-13.63a16.12,16.12,0,0,0-5.66-12.54,20,20,0,0,0-13.48-4.72,18.45,18.45,0,0,0-12.69,4.57q-5.15,4.57-6.31,12.69Z" transform="translate(-286 -120.83)" fill="#045700"/><path class="cls-1" d="M939.57,1497.72q8.85,9.06,8.85,25.3v47.12h-20.3v-44.36q0-9.58-4.79-14.72t-13.05-5.15q-8.4,0-13.27,5.15t-4.85,14.72v44.36h-20.3v-80.32h20.3v10a28,28,0,0,1,10.36-8.19,32.12,32.12,0,0,1,13.85-3Q930.73,1488.65,939.57,1497.72Z" transform="translate(-286 -120.83)" fill="#045700"/><path class="cls-1" d="M1018.09,1567.53a31.22,31.22,0,0,1-13.42-10.44A27.48,27.48,0,0,1,999.6,1541h21.75a14.06,14.06,0,0,0,4.42,9.86q4,3.63,11,3.62t11.16-3.41a11,11,0,0,0,4.06-8.91,10.35,10.35,0,0,0-2.75-7.4,19.31,19.31,0,0,0-6.89-4.56,113.22,113.22,0,0,0-11.38-3.7,119.84,119.84,0,0,1-16-5.73,28,28,0,0,1-10.59-8.55q-4.42-5.73-4.42-15.3a27.34,27.34,0,0,1,4.5-15.66A28.49,28.49,0,0,1,1017,1471a45.86,45.86,0,0,1,18.56-3.56q15.66,0,25.45,7.62t10.8,21.24h-22.33a11.65,11.65,0,0,0-4.42-8.63q-4.14-3.4-11-3.4-6,0-9.5,3t-3.55,8.84a9.15,9.15,0,0,0,2.68,6.75,20.4,20.4,0,0,0,6.67,4.35q4,1.67,11.24,3.84a117.79,117.79,0,0,1,16.09,5.8,28.86,28.86,0,0,1,10.73,8.7q4.5,5.79,4.5,15.22a28.57,28.57,0,0,1-4.21,15.08,29.63,29.63,0,0,1-12.32,11.09q-8.13,4.14-19.29,4.14A48,48,0,0,1,1018.09,1567.53Z" transform="translate(-286 -120.83)" fill="#045700"/><path class="cls-1" d="M1164.6,1536.07h-58.72q.72,8.7,6.09,13.63a18.8,18.8,0,0,0,13.19,4.93q11.31,0,16.1-9.72h21.89a36.54,36.54,0,0,1-13.34,19.07q-9.86,7.47-24.21,7.47a41.92,41.92,0,0,1-20.81-5.15,36.2,36.2,0,0,1-14.35-14.57,44.68,44.68,0,0,1-5.15-21.75,45.5,45.5,0,0,1,5.07-21.89,35.39,35.39,0,0,1,14.21-14.5,45.6,45.6,0,0,1,41.54-.15,34.71,34.71,0,0,1,14.07,14,42.32,42.32,0,0,1,5,20.81A47.54,47.54,0,0,1,1164.6,1536.07Zm-20.44-13.63a16.08,16.08,0,0,0-5.66-12.54,20,20,0,0,0-13.48-4.72,18.45,18.45,0,0,0-12.69,4.57q-5.14,4.57-6.31,12.69Z" transform="translate(-286 -120.83)" fill="#045700"/><path class="cls-1" d="M1210.49,1492.28a28.53,28.53,0,0,1,14.43-3.63V1510h-5.37c-6.37,0-11.19,1.5-14.42,4.49s-4.86,8.22-4.86,15.66v40H1180v-80.32h20.3v12.47A28.56,28.56,0,0,1,1210.49,1492.28Z" transform="translate(-286 -120.83)" fill="#045700"/><path class="cls-1" d="M1272,1551.44l20.3-61.62H1314l-29.73,80.32h-24.65L1230,1489.82h21.75Z" transform="translate(-286 -120.83)" fill="#045700"/><path class="cls-1" d="M1326.78,1476.84a11.89,11.89,0,0,1,0-17,13.39,13.39,0,0,1,17.83,0,11.92,11.92,0,0,1,0,17,13.39,13.39,0,0,1-17.83,0Zm18.92,13v80.32h-20.3v-80.32Z" transform="translate(-286 -120.83)" fill="#045700"/><path class="cls-1" d="M1365.56,1508.16a36.24,36.24,0,0,1,14.07-14.5,40.69,40.69,0,0,1,20.59-5.15q14.92,0,24.72,7.47t13.12,21h-21.89a16,16,0,0,0-5.88-8.19,17,17,0,0,0-10.22-3q-8.7,0-13.77,6.31t-5.08,17.91q0,11.46,5.08,17.76t13.77,6.31q12.33,0,16.1-11h21.89a37,37,0,0,1-13.19,20.73q-9.87,7.7-24.65,7.69a40.69,40.69,0,0,1-20.59-5.15,36.31,36.31,0,0,1-14.07-14.5q-5.07-9.36-5.07-21.82T1365.56,1508.16Z" transform="translate(-286 -120.83)" fill="#045700"/><path class="cls-1" d="M1527.09,1536.07h-58.72q.72,8.7,6.08,13.63a18.83,18.83,0,0,0,13.2,4.93q11.31,0,16.1-9.72h21.89A36.6,36.6,0,0,1,1512.3,1564q-9.87,7.47-24.21,7.47a41.92,41.92,0,0,1-20.81-5.15,36.23,36.23,0,0,1-14.36-14.57,44.68,44.68,0,0,1-5.14-21.75,45.5,45.5,0,0,1,5.07-21.89,35.33,35.33,0,0,1,14.21-14.5,45.6,45.6,0,0,1,41.54-.15,34.77,34.77,0,0,1,14.07,14,42.43,42.43,0,0,1,5,20.81A48.66,48.66,0,0,1,1527.09,1536.07Zm-20.45-13.63a16.08,16.08,0,0,0-5.65-12.54,20.06,20.06,0,0,0-13.48-4.72,18.45,18.45,0,0,0-12.69,4.57q-5.14,4.57-6.31,12.69Z" transform="translate(-286 -120.83)" fill="#045700"/><path class="cls-1" d="M1555.51,1567.9a31.33,31.33,0,0,1-12.4-9.65,24.38,24.38,0,0,1-5-13.48h20.44a11.14,11.14,0,0,0,4.57,7.68,15.87,15.87,0,0,0,9.93,3c3.87,0,6.89-.78,9.06-2.32a7,7,0,0,0,3.27-6c0-2.61-1.33-4.56-4-5.87a74.94,74.94,0,0,0-12.69-4.28,107.39,107.39,0,0,1-14.72-4.49,25.62,25.62,0,0,1-9.86-7.11c-2.75-3.18-4.13-7.49-4.13-12.9a20.84,20.84,0,0,1,3.84-12.18,25.87,25.87,0,0,1,11-8.7,41.3,41.3,0,0,1,16.9-3.19q14.36,0,22.9,7.18t9.43,19.36h-19.43a10.52,10.52,0,0,0-4-7.62q-3.56-2.82-9.5-2.83-5.51,0-8.48,2a6.5,6.5,0,0,0-3,5.66q0,4.07,4.06,6.16a63.12,63.12,0,0,0,12.62,4.28,108.51,108.51,0,0,1,14.35,4.49,25.43,25.43,0,0,1,9.79,7.18q4.13,4.86,4.28,12.83a21.29,21.29,0,0,1-3.85,12.47,25.24,25.24,0,0,1-11,8.63,41.68,41.68,0,0,1-16.75,3.12A42.45,42.45,0,0,1,1555.51,1567.9Z" transform="translate(-286 -120.83)" fill="#045700"/><path class="cls-1" d="M1601.09,1597.61H416.23v50.84H667.36c88.1,99.44,198.42,180.63,336.63,229.09l4.67,1.63,4.67-1.63c138.21-48.46,248.53-129.65,336.63-229.09h251.13Zm-588.27,198.12-4.16,1.46-4.16-1.46c-95.23-33.55-175.56-84.66-243.39-147.28h495.1C1188.38,1711.07,1108.05,1762.18,1012.82,1795.73Z" transform="translate(-286 -120.83)" fill="#045700"/><path d="M1694.38,390.54c6.11-5,12.1-10.15,18-15.36.86-.75,1.07-2.24,1.59-3.39-1.17-.5-2.4-1.53-3.49-1.4a96,96,0,0,0-14.39,2.25c-14,3.81-27.15,9.95-39.83,17-45.84,25.38-83.21,60.14-113.2,103a344.4,344.4,0,0,0-18.36,29.33q-21.48-8-45.26-15.94,6-29.13,9.55-58.73c4.9-41.1,6-82.24,1.71-123.46s-13.49-81-29.92-119.06c-10.08-23.33-22.31-45.43-38.82-64.89-5-5.91-11-11-16.64-16.37-1.3-1.22-3.23-1.76-4.87-2.61l-.87.84c1,2,1.82,4.07,2.89,6A293.27,293.27,0,0,1,1427,185.14c12.52,41.41,16.85,83.9,16.72,127-.15,49.79-6.57,98.89-16.51,147.58-1.91,9.39-4,18.75-6.16,28.07q-12.78-3.69-26-7.26.74-14.29.17-28.68A332.56,332.56,0,0,0,1346.39,290c-8.29-13.68-17.55-26.7-29.28-37.74a38.52,38.52,0,0,0-6.16-4.59c-.85-.53-2.13-.36-3.21-.51a9.71,9.71,0,0,0-.2,3,46.44,46.44,0,0,0,1.94,5.8c4.1,10.59,8.55,21,12.31,31.76C1340,339.8,1344.68,393.38,1339,448c-.63,6-1.42,12.05-2.29,18-95.93-21.69-206.92-36.7-328-35.08-219.56-2.94-406,48.77-529.37,95.91L373.18,388.07c-43.27-19.66-33.53,23.62-33.53,23.62L440,542.59q-7.23,3-14,5.95L307.62,456c-27.68-5.46-20.88,19.58-20.88,19.58L396.38,561.7C347,584.45,319.64,601,319.64,601s-8.19,292.52,78.23,612.84H319.43v50.84H1697.89v-50.84h-78.44C1705.87,893.5,1697.68,601,1697.68,601s-42.5-25.7-117.3-57.11q7.95-17.62,17.23-34.71C1622.5,463.6,1654.1,423.53,1694.38,390.54Zm-72.49,274.59s7.3,262-69.81,548.69H1400.57a95.68,95.68,0,1,0-21,0H879.08a116.1,116.1,0,1,0-68,0H465.24c-77.11-286.7-69.81-548.69-69.81-548.69s28.93-17.57,80.69-40.75L546,679.31l141.7,181.1L506.49,858c-62.28,11.9-55.94,72.07-55.94,72.07l29.8,172c20.12,57.8,81.53,72.87,81.53,72.87l169,2.23a136.32,136.32,0,1,1,229.78,3l.8,0,322.25,4.25v-1.27c-61.54-121,63.25-178.11,63.25-178.11-10.2-8-110.33-44.26-110.33-44.26l-3.5-24.48,30.18-.75L1255,875.35c-51.9-21.89-106.32-32.4-156.3-36.61a30.08,30.08,0,0,0-59.93-2.33c-76.24.35-131.32,12.78-131.32,12.78l-6.6,66-122.53-3.91-242-311.88c109.78-42.28,276.23-88.88,472.37-86.24C1363.94,508.35,1621.89,665.13,1621.89,665.13Zm-232.65,520.3a66.77,66.77,0,1,1,67.65-65.88A66.77,66.77,0,0,1,1389.24,1185.43ZM844,1183.77a81,81,0,1,1,82-79.88A81,81,0,0,1,844,1183.77Z" transform="translate(-286 -120.83)" fill="#045700"/><path d="M1573.33,363c15.33-19.44,32.38-37.17,52-52.32a234.66,234.66,0,0,1,48.8-28.61c1.18-.52,2.25-1.26,3.38-1.9,0-.29-.07-.57-.1-.86a21.91,21.91,0,0,0-3.39-1c-8-1.13-15.94-.09-23.78,1.53-22.26,4.62-42.19,14.52-60.8,27.28-24.91,17.08-45.61,38.52-64,62.32a7.28,7.28,0,0,0-1.24,4.13,625.84,625.84,0,0,1-4.43,66.33l-1.56,12.7a26,26,0,0,0,3.38-5.72C1536.22,417.28,1552.86,389,1573.33,363Z" transform="translate(-286 -120.83)" fill="#045700"/></g></svg>